<?xml version="1.0" encoding="UTF-8"?>
<svg xmlns="http://www.w3.org/2000/svg" xmlns:xlink="http://www.w3.org/1999/xlink" version="1.1" x="0px" y="0px" viewBox="0 0 937.6 826.4" style="enable-background:new 0 0 937.6 826.4;" xml:space="preserve">
<style type="text/css">
	.st0{fill:#fff61a;}
	.st1{fill:#FFDD00;}
	.st2{fill:none;stroke:#87c159;stroke-width:8;stroke-linecap:round;stroke-miterlimit:10;}
	.st3{fill:#FFFFFF;}
	.st4{fill:none;stroke:#FFFFFF;stroke-width:8;stroke-linecap:round;stroke-miterlimit:10;}
</style>
    <g id="HGs">
</g>
    <g id="Weck">
</g>
    <g id="Dose">
</g>
    <g id="Tiefzieh">
</g>
    <g id="Wein">
</g>
    <g id="Eierkarton">
</g>
    <g id="Buch">
</g>
    <g id="Waschmittel">
	<g>
		<path d="M321.2,660.8c0,17.4-61.9,23.2-154.4,23.2S0,674,0,656.6s66.4-20.8,158.8-20.8S321.2,643.4,321.2,660.8z"></path>
        <path class="st0" d="M352.8,310c-0.2-1.3-0.4-2.6-0.6-3.9c-1.4-10.3-11.5-69.7-69.7-106.4c-2.1-1.3-4.1-2.7-6.1-4.2    c-5.3-4.2-16.8-13.3-26.8-21.8c-3.4-2.9-7.5-4.8-10.8-7.7c-17.9-16.3-19.2-80.2-19.2-80.2c-43.2,24.5-97.1,2.1-97.1,2.1     M122.4,86.8c6.2,48.6-12.8,82.4-12.8,82.4C96.2,187.5,76.5,223.8,76.1,280L80,573.5c0,0,2.9,98.5,35.1,99c0,0,55.3,3.3,156.1-3.4    c17.1-1.1,33.1-9.1,45.6-20.8l2.8-2.6c8.4-7.9,15-17.6,19.3-28.4c4.1-10.3,6.7-19.2,8.2-23.6c10.9-31.2,35-124.6,5.8-283.7     M325.8,385.5c-0.8,86.7,3.4,137.2-15.5,149c0,0-23.7,12.8-27.8-58.5l-0.8-93c0,0-2.2-69.8,21.1-70.7    C302.9,312.4,326.5,303.9,325.8,385.5"></path>
        <path class="st0" d="M232.3,125.4c-7.1-37.3-8.7-88.4-9-92.9c-0.1-1.4-1.7-1.7-1.8-1.8c-52.2-15.8-93.4-0.4-100.2,2.4    c-0.8,0.3-0.9,1-0.6,2.6c4.6,25.5-3.3,64.4-10.7,92.5C110.1,128.3,162.8,166.6,232.3,125.4"></path>
        <path class="st1" d="M351.7,526.4"></path>
        <path class="st2" d="M110.2,124.1c0,0,52.7,38.3,122.2-2.9"></path>
        <g>
			<path class="st3" d="M143.1,158.6c0,0-27.5,89.8-28.6,124.7c0,0,2.3,253.9,3.1,293.6c0.7,39.6-0.2,31.8,23.8,32.9     c3.7-57.6-1-235.4-1.9-303c-0.2-13.8,0.5-28,3.6-41.4c7.9-34.8,23.7-104.8,23.9-107.5C158.9,156.7,143.1,158.6,143.1,158.6"></path>
            <path class="st3" d="M167.4,112.5c-2.1-24.9-6.9-64.1-0.5-88.8c0,0-10.8,0.1-17.6,2c0,0-3,59.2-8.6,87.8     C148.6,112.8,156.7,111.9,167.4,112.5"></path>
		</g>
	</g>
</g>
    <g id="Plastiktüte">
	<g>
		<path d="M909.9,792.6c0,34-103.2,17.4-226.3,29C517.9,837.2,344,812.7,344,780.1c0-37.8,134-56.6,256.7-63.9    C724.1,709,909.9,735.6,909.9,792.6z"></path>
        <g>
			<path class="st0" d="M890.6,734.1c32.3-188.1-27-429.8-34.3-444.9c-7.3-15.1,0.1-33.8,0.1-33.8c24.1-108.2,5.2-193.3,5.2-193.3     L851.2,7.8L833,0l-11.8,28.4l-27.9-13l-16.4,26l-25.1-17.8l-21.3,22.3l-20.7-22.8L679.6,43l-31.6-17.5l-23,28.1L591,41.9     l-23.3,27.8l-31.5-17.6l-29.7,20.6l-23.6-22.2l-23,22.8L432.4,56l-18.8,26.4l-29.7-12.8l-14.7,28.9c0,0,16.6,60.1,19.1,63.5     c5.6,139.4,51.8,190.3,66.9,231c15.1,40.7-8.5,152.4-8.5,152.4c-21.2,159.9,24.5,165.6,1.8,201.9c-22.7,36.3-56.5,26.8,15.3,52.1     c71.9,25.3,150.2-4.2,266,2.6c115.8,6.8,207.9-22,207.9-22L890.6,734.1z"></path>
		</g>
        <g>
			<path class="st4" d="M405.9,151.8c0,0,50.2-36.2,136.6-35s105-22.2,178.6-21s130.4-19.8,130.4-19.8"></path>
            <path class="st2" d="M526.4,756.7c0,0,81.4,21,168.9,8.8c87.5-12.3,170.3,0.7,210-38.6"></path>
		</g>
        <path class="st3" d="M829.3,263.5l-45.6-21.8c0,0,6.2,75.2,51.7,189c21.6,54,49.9,182.1,49.9,182.1S874.8,399.2,829.3,263.5z"></path>
	</g>
</g>
</svg>
